inDegrees=no
num_controls=7
num_derivatives=13
num_iterations=148
num_multipliers=7
num_parameters=0
num_slacks=7
num_states=26
objective=5.661299
objective_accelerations=0.766806
objective_balance=0.050362
objective_effort=0.279273
objective_height=4.542002
objective_ligament=0.022856
solver_duration=1647.180186
status=Solve_Succeeded
success=true
DataType=double
version=3
OpenSimVersion=4.4-2022-07-23-0e9fedc
endheader
time	/jointset/ground_pelvis/pelvis_tilt/value	/jointset/ground_pelvis/pelvis_tx/value	/jointset/ground_pelvis/pelvis_ty/value	/jointset/hip_l/hip_flexion_l/value	/jointset/hip_l/hip_adduction_l/value	/jointset/hip_l/hip_rotation_l/value	/jointset/back/lumbar_extension/value	/jointset/patellofemoral_l/patellar_flexion_l/value	/jointset/knee_l/knee_flexion_l/value	/jointset/knee_l/knee_adduction_l/value	/jointset/knee_l/knee_rotation_l/value	/jointset/ankle_l/ankle_angle_l/value	/jointset/subtalar_l/subtalar_angle_l/value	/jointset/ground_pelvis/pelvis_tilt/speed	/jointset/ground_pelvis/pelvis_tx/speed	/jointset/ground_pelvis/pelvis_ty/speed	/jointset/hip_l/hip_flexion_l/speed	/jointset/hip_l/hip_adduction_l/speed	/jointset/hip_l/hip_rotation_l/speed	/jointset/back/lumbar_extension/speed	/jointset/patellofemoral_l/patellar_flexion_l/speed	/jointset/knee_l/knee_flexion_l/speed	/jointset/knee_l/knee_adduction_l/speed	/jointset/knee_l/knee_rotation_l/speed	/jointset/ankle_l/ankle_angle_l/speed	/jointset/subtalar_l/subtalar_angle_l/speed	/forceset/tau_hip_flexion_l	/forceset/tau_hip_adduction_l	/forceset/tau_hip_rotation_l	/forceset/tau_knee_flexion_l	/forceset/tau_ankle_angle_l	/forceset/tau_subtalar_angle_l	/forceset/tau_lumbar_extension	lambda_cid13_p0	lambda_cid13_p1	lambda_cid13_p2	lambda_cid13_p3	lambda_cid13_p4	lambda_cid13_p5	lambda_cid14_p0	/jointset/ground_pelvis/pelvis_tilt/accel	/jointset/ground_pelvis/pelvis_tx/accel	/jointset/ground_pelvis/pelvis_ty/accel	/jointset/hip_l/hip_flexion_l/accel	/jointset/hip_l/hip_adduction_l/accel	/jointset/hip_l/hip_rotation_l/accel	/jointset/back/lumbar_extension/accel	/jointset/patellofemoral_l/patellar_flexion_l/accel	/jointset/knee_l/knee_flexion_l/accel	/jointset/knee_l/knee_adduction_l/accel	/jointset/knee_l/knee_rotation_l/accel	/jointset/ankle_l/ankle_angle_l/accel	/jointset/subtalar_l/subtalar_angle_l/accel	gamma_cid13_p0	gamma_cid13_p1	gamma_cid13_p2	gamma_cid13_p3	gamma_cid13_p4	gamma_cid13_p5	gamma_cid14_p0
0	-0.0407899740296355	0.0694732013642745	0.8960019437775953	0.1955292361009247	-0.3214689716028561	-0.4940761716849623	-0.137903700187828	0.07015350928391166	0.07015350928391206	-0.1745329251994329	-0.1280092545724642	-0.06701017130107029	0.004518760971073101	0	0	0	0	0	0	0	0	0	0	0	0	0	0.1188235016112366	-0.1225772609314862	-0.03668775673028864	-0.268845589069418	0.2461497808615464	-0.01544963747512829	-0.05899302328908997	43.50338341647532	-3.657687314819837	3.388765203089295	-18.2983755146872	-515.216721818693	-84.57900031013406	-40.18995878007858	-4.252854772818027	-1.447335106899486	-0.9584645603890399	12.28276768408897	-2.202036080646498	3.572306076954612	-2.784821064753895	11.02693265464265	11.02693265464228	1.06458805344872	-0.8346365068024385	3.289791657841453	-0.6239537137513552	-4.238594672914896e-08	1.3964711965535e-07	1.574537727249564e-07	2.404245833655293e-08	-4.339954687500744e-08	-7.930767540207384e-08	-6.172071857699275e-09
0.01	-0.04099235758361615	0.06940167473703546	0.8959554530503557	0.1961230856179083	-0.3215770994113274	-0.4938961233626294	-0.1380488890864434	0.07068952477526952	0.07068952477527057	-0.1744829400480879	-0.1280438932580504	-0.0668512625898732	0.004486631826531035	-0.04027004065071724	-0.01426170808772094	-0.009268674357117555	0.1182570638063228	-0.02150547721199041	0.03586157335278457	-0.02878473064527309	0.1067290130091638	0.1067290130091639	0.009990170791099224	-0.00688650054640322	0.03162150649433899	-0.006383007234004583	0.113166408606834	-0.121839698588887	-0.03541009856154864	-0.2603914571191762	0.2331915942166995	-0.01036349176700678	-0.05440117827836612	39.4975323231545	-5.186806094480643	3.657221348973311	-16.2383108605356	-516.066432586896	-87.8475371267733	-40.20063015392802	-3.883091347794496	-1.409041247159696	-0.9066568896631332	11.52023571408231	-2.106831981485442	3.570851593501077	-2.887341702759509	10.42477406894088	10.42477406894108	0.9649943671887605	-0.609455794420295	3.074295677141314	-0.6390909811875299	-8.412628450533564e-08	1.774421350099686e-07	2.475044155325214e-07	6.438691623847304e-08	-2.848647993237876e-07	-1.448275271134176e-07	-9.882729611183422e-09
0.02	-0.04159124407142375	0.06918884051142893	0.8958171579762869	0.1978841177699938	-0.3218966876799218	-0.4933619055809627	-0.138474333819181	0.07227860808570727	0.07227860808570748	-0.1743332922437906	-0.1281461567422597	-0.06638094570735081	0.004391949259056424	-0.07930058676528233	-0.02826151967349636	-0.01836086936585156	0.2334365270197711	-0.04229209202438963	0.07083389186799904	-0.05605116682436835	0.2106135638138339	0.2106135638138348	0.01993085259213108	-0.01352495972724854	0.06228163426512674	-0.01251068458650877	0.1075093156024974	-0.1211021362462732	-0.03413244039287466	-0.2519373251688719	0.2202334075718811	-0.005277346058853298	-0.04980933326762028	35.56110510488297	-6.729047634056974	3.928876289776273	-14.37605470190347	-515.9164551503251	-90.93182670665864	-40.23202785790913	-4.004955865587606	-1.394955806510364	-0.9231686907123289	11.66724756551408	-2.058263600728266	3.394455109440592	-2.481162171518334	10.45804021374391	10.45804021374367	1.054690255435232	-0.7850282336908541	3.097515913131221	-0.5728877374512747	-1.258666222815223e-07	2.152371503645872e-07	3.375550583400865e-07	1.047313741403932e-07	-5.263300517725676e-07	-2.103473788247613e-07	-1.359338736466757e-08
0.03	-0.04257475958894402	0.0688373159292128	0.8955885065257723	0.2007825533523394	-0.3224204539416763	-0.4924830036650429	-0.1391644194463181	0.07489290583677131	0.07489290583677323	-0.1740844108929969	-0.1283143053146989	-0.06560866976217203	0.004237442584383095	-0.117189319666937	-0.04199751632136571	-0.02736297174488676	0.3457334217688424	-0.06233181531810314	0.1047986018719778	-0.08173034886778446	0.3117614468278314	0.3117614468278312	0.02981880563908115	-0.02005511688715675	0.09200545828788829	-0.01834407618038954	0.1015228620309604	-0.114027448195654	-0.03287288879278025	-0.2439582948115782	0.2106532000627922	-0.00591939912415912	-0.04505658664137471	32.48763913867568	-6.09773614597996	4.040311399424941	-12.45459026154396	-515.792225257529	-88.97704414771457	-40.28282518308232	-3.648866006793764	-1.356018417345105	-0.8878699042995474	10.93331299945954	-1.957492261078013	3.375252175078064	-2.575954760490709	9.870484143270319	9.870484143270318	0.9519340765981206	-0.5795240459880602	2.884599913828379	-0.5816507335197463	-1.540332209080963e-07	2.426418734282417e-07	4.038085821912183e-07	1.327444134217183e-07	-6.979720062086185e-07	-2.577239185977024e-07	-1.548145798754593e-08
0.04	-0.04393076923634832	0.06834981201583409	0.8952700062729072	0.2047884383961463	-0.3231407505498445	-0.4912689000032403	-0.1401042286018366	0.07850414677758046	0.07850414677758055	-0.1737374327622735	-0.1285462583765095	-0.06454419872336958	0.004025984821138302	-0.1537994127421608	-0.0554573859060114	-0.03633062983595638	0.4549264193121545	-0.08159816130721914	0.137874241044018	-0.1059958725007013	0.4100022017635342	0.410002201763534	0.03955020857695886	-0.02628585760095429	0.1207206529898398	-0.0239009023008016	0.09553640845939519	-0.1069527601450422	-0.03161333719267287	-0.2359792644543159	0.2010729925536866	-0.006561452189482249	-0.04030384001513292	29.47812585880226	-5.475641068605102	4.150954172202795	-10.71449189873297	-514.7535559558521	-86.84610263826747	-40.35132771548815	-3.749227900301456	-1.339730393865618	-0.9162798331192116	11.04646812436222	-1.903588139808768	3.216640943052893	-2.19843048941848	9.876614598084958	9.876614598084934	1.023380233620753	-0.7251449444687172	2.895790048969237	-0.5175746427575281	-1.81919948624369e-07	2.698323636611548e-07	4.695714437958258e-07	1.605031966490106e-07	-8.68174305015541e-07	-3.047263694646972e-07	-1.733194949432933e-08
0.05	-0.04564752000124361	0.06772947260602231	0.8948617094819333	0.2098720021858095	-0.3240498600142712	-0.4897288048299469	-0.1412788740647258	0.08308426921325113	0.08308426921325238	-0.1732937703506186	-0.1288395964386812	-0.06319677534206676	0.003760771854816154	-0.1893607385057011	-0.06852255401644898	-0.04534027255673445	0.5612490266461891	-0.1000888893991102	0.1699942634292038	-0.1287050399035187	0.505537169542557	0.5055371695425565	0.04914273211442986	-0.03232394461242347	0.1486422205772147	-0.02906531225034765	0.09079549247857127	-0.1038549455181042	-0.03077781423326182	-0.2319482834328437	0.1956000662808268	-0.005393451797298356	-0.03645460104361645	27.84652925958582	-5.750741467248385	4.255943362444047	-10.25793726710665	-513.9334445372166	-86.64608227081818	-40.4354107963137	-3.431098474497591	-1.276686388652176	-0.8952131314798547	10.34453220393365	-1.801675870644726	3.187041552287943	-2.272932839699298	9.319173974902183	9.319173974902128	0.9213601644112772	-0.5344113260639795	2.722067729549375	-0.5045127062729641	-1.985913134498867e-07	2.382825730222578e-07	5.071270684353665e-07	1.734870129504508e-07	-9.811541340860176e-07	-3.405221432157895e-07	-2.258039027264215e-08
0.06	-0.04771418673579783	0.06698112624130233	0.8943629349357671	0.2160026670820166	-0.32513984890497	-0.487872037699595	-0.1426737657964402	0.08860518854813286	0.08860518854813282	-0.1727553483534687	-0.1291915695202789	-0.06157379076170465	0.003446187081954583	-0.2237826066739333	-0.08105877688765133	-0.0544261808744434	0.6643466406206053	-0.1177740465616191	0.201208632455851	-0.1500451262657756	0.598161581605229	0.5981615816052279	0.05850212567594158	-0.03801286148701086	0.1758328928017004	-0.03377526360868616	0.08605457649776636	-0.1007571308911646	-0.02994229127387042	-0.2279173024113615	0.1901271400079697	-0.004225451405111063	-0.03260536207208637	26.27186754192796	-6.034796178384947	4.361202065083066	-9.964175714567881	-512.2951608451945	-86.28811642160223	-40.53266013773184	-3.521336381239846	-1.233941346018557	-0.9315329525053863	10.4014694524385	-1.742473953932326	3.03551027134518	-1.924614281306403	9.294503454814771	9.294503454814748	0.9767542384288859	-0.6553109170923535	2.749610976391423	-0.4266829245160152	-2.147904524694778e-07	2.042595073992846e-07	5.43495019939536e-07	1.858487253813288e-07	-1.091724596009696e-06	-3.758460568777911e-07	-2.797190259922989e-08
0.07000000000000001	-0.0501200829422831	0.06610988389443304	0.8937726578409688	0.2231498712161013	-0.3264026945163234	-0.4857082581760199	-0.1442745175565031	0.09503897697600991	0.09503897697600924	-0.1721242876659186	-0.1295997013923376	-0.05968233378217403	0.003086853785624213	-0.2571961420516728	-0.09311542175186083	-0.06365592839599678	0.764572841213549	-0.134653554594716	0.231401029302088	-0.1698905376749464	0.6881123762856173	0.6881123762856147	0.06766606580168713	-0.04355198958257527	0.2023163733945555	-0.03802002325707125	0.08050106507920672	-0.0963347300869862	-0.02891875821698988	-0.2230493758866103	0.1832996594803923	-0.003412695197505642	-0.02823854556216136	24.23008932860612	-6.115536218318094	4.471461983114876	-9.120017142989258	-510.8496868264998	-85.47081978743586	-40.64037569112948	-3.221296669464374	-1.180348126845749	-0.9229188837630246	9.754967492111732	-1.639543683889651	2.989091126841171	-1.982301359969963	8.772813981737668	8.772813981737492	0.8797219855697905	-0.4939108378393041	2.576392738029142	-0.412759240652589	-2.202150774240181e-07	1.609279148708175e-07	5.585618014310205e-07	1.873389976631959e-07	-1.137224142735168e-06	-3.948682981496792e-07	-3.239522671697047e-08
0.08	-0.05285410141322987	0.06512031068487696	0.8930892386245983	0.2312836917819924	-0.3278301060991862	-0.4832469573368661	-0.1460672827885073	0.1023577626521053	0.1023577626521054	-0.1714028859599271	-0.1300613639617667	-0.05753030676925552	0.002687195541679429	-0.2894070595663479	-0.104724949425005	-0.07305460518886574	0.8616699269820706	-0.150687240863464	0.2607128955714536	-0.1884478206540212	0.7751610312494782	0.7751610312494748	0.07657032936432864	-0.04871900096017178	0.2279468994792747	-0.04184025313156964	0.07494755366062772	-0.09191232928280756	-0.02789522516008739	-0.2181814493618725	0.1764721789528106	-0.002599938989902566	-0.02387172905224896	22.23878915912093	-6.202479347057296	4.579701459197039	-8.418280124683719	-508.6795099850474	-84.511956497131	-40.75567960236782	-3.280812808626986	-1.144517907805468	-0.9653188067685051	9.775646487554059	-1.573309601062523	2.859404155970898	-1.666988595287193	8.714075511509323	8.714075511509341	0.9248189258080685	-0.5808875734987697	2.579020074764261	-0.3417769697386706	-2.249445724388776e-07	1.169957722194154e-07	5.722543138894285e-07	1.881278867096429e-07	-1.178525565899465e-06	-4.128388186222051e-07	-3.675608707930156e-08
